<?xml version="1.0" encoding="utf-8"?>
<!-- Generator: Adobe Illustrator 22.1.0, SVG Export Plug-In . SVG Version: 6.00 Build 0)  -->
<svg version="1.1" id="Calque_1" xmlns="http://www.w3.org/2000/svg" xmlns:xlink="http://www.w3.org/1999/xlink" x="0px" y="0px"
	 viewBox="0 0 200 51.9" style="enable-background:new 0 0 200 51.9;" xml:space="preserve">
<style type="text/css">
	.st0{fill:#231F20;}
	.st1{fill:#FFD300;}
</style>
<title>ThomasWatt-lighting-pro</title>
<g>
	<path class="st0" d="M199.1,12.1V9.8h-22.2V2h-2.8v7.7h-7.4V2H164v7.7h-3v0.1v1.5V12h3v14.6c0,0.7,0,1.2,0.1,1.7
		c0,0.5,0.1,1,0.3,1.5s0.4,1,0.6,1.3c0.3,0.3,0.6,0.6,1.1,0.8s1.1,0.3,1.8,0.3c0.8,0,1.6-0.1,2.4-0.3V30c-0.5,0.1-1,0.1-1.6,0.1
		c-0.4,0-0.7-0.1-0.9-0.2s-0.4-0.3-0.6-0.4c-0.1-0.2-0.2-0.4-0.3-0.8c-0.1-0.3-0.1-0.7-0.1-1s0-0.7,0-1.2V12.1h7.4v14.6
		c0,0.7,0,1.2,0.1,1.7c0,0.5,0.1,1,0.3,1.5s0.4,1,0.6,1.3c0.3,0.3,0.6,0.6,1.1,0.8c0.5,0.2,1.1,0.3,1.8,0.3c0.8,0,1.6-0.1,2.4-0.3
		v-2c-0.5,0.1-1,0.1-1.6,0.1c-0.4,0-0.7-0.1-0.9-0.2s-0.4-0.3-0.6-0.4c-0.1-0.2-0.2-0.4-0.3-0.8c-0.1-0.3-0.1-0.7-0.1-1s0-0.7,0-1.2
		V12.1H199.1z"/>
	<path class="st0" d="M30.3,31.9V0.2h2.8v11.7c0.6-0.9,1.2-1.5,2.1-1.9c0.8-0.4,1.7-0.6,2.6-0.6c1.1,0,2.1,0.5,2.9,1.4
		c0.8,0.9,1.2,2.2,1.2,3.8v17.3h-2.8V14.7c0-2.2-0.8-3.3-2.3-3.3c-0.6,0-1.2,0.2-1.9,0.6c-0.7,0.4-1.3,1-1.7,1.6v18.3H30.3z"/>
	<path class="st0" d="M45.9,21.5v-1.1c0-1,0-1.7,0-2.3c0-0.5,0.1-1.2,0.1-2.1c0.1-0.9,0.2-1.6,0.3-2.1s0.4-1.1,0.6-1.7
		c0.3-0.7,0.6-1.1,1-1.5c0.4-0.3,0.9-0.6,1.6-0.9c0.6-0.2,1.3-0.4,2.2-0.4s1.5,0.1,2.2,0.4c0.6,0.2,1.1,0.5,1.6,0.9
		c0.4,0.3,0.8,0.8,1,1.5c0.3,0.7,0.5,1.2,0.6,1.7s0.2,1.2,0.3,2.1c0.1,0.9,0.1,1.6,0.1,2.1s0,1.3,0,2.3v1.1c0,0.8,0,1.4,0,1.9
		c0,0.4,0,1-0.1,1.7c0,0.7-0.1,1.3-0.1,1.7c-0.1,0.4-0.2,0.9-0.3,1.5s-0.3,1.1-0.5,1.4s-0.4,0.7-0.7,1.1s-0.6,0.7-1,0.9
		c-0.4,0.2-0.8,0.4-1.4,0.5c-0.5,0.1-1.1,0.2-1.7,0.2c-0.6,0-1.2-0.1-1.7-0.2c-0.5-0.1-1-0.3-1.4-0.5s-0.7-0.5-1-0.9
		s-0.5-0.8-0.7-1.1c-0.2-0.3-0.4-0.8-0.5-1.4s-0.2-1.1-0.3-1.5s-0.1-1-0.1-1.7s0-1.3-0.1-1.7C45.9,22.9,45.9,22.3,45.9,21.5z
		 M48.6,20.3v1.1c0,3.5,0.2,5.8,0.6,7.1c0.4,1.3,1.2,2,2.5,2c1.2,0,2.1-0.7,2.5-2s0.6-3.7,0.6-7.1v-1.1c0-1.2,0-2.1,0-2.9
		s-0.1-1.6-0.2-2.3c-0.1-0.7-0.2-1.3-0.3-1.8c-0.1-0.4-0.3-0.8-0.6-1.2c-0.2-0.3-0.5-0.6-0.8-0.7c-0.3-0.1-0.7-0.2-1.2-0.2
		s-0.8,0.1-1.2,0.2c-0.3,0.1-0.6,0.4-0.8,0.7s-0.4,0.7-0.6,1.2c-0.1,0.4-0.2,1-0.3,1.8c-0.1,0.7-0.1,1.5-0.2,2.3
		C48.6,18.2,48.6,19.1,48.6,20.3z"/>
	<path class="st0" d="M61.7,31.9v-22h2.8v2c1.4-1.7,3.1-2.5,4.9-2.5c0.7,0,1.5,0.2,2.2,0.7s1.2,1.1,1.5,1.8c0.7-0.8,1.5-1.4,2.4-1.9
		c0.9-0.4,1.6-0.6,2.4-0.6c1.1,0,2.1,0.4,3,1.2c0.8,0.8,1.3,1.8,1.3,2.9v18.4h-2.8V14.1c0-0.9-0.2-1.6-0.6-2s-1-0.6-1.6-0.6
		c-1.1,0-2.3,0.6-3.5,1.8V32h-2.8V14c0-1.8-0.8-2.6-2.3-2.6c-0.6,0-1.3,0.2-2,0.6c-0.7,0.4-1.3,0.9-1.9,1.6v18.3H61.7z"/>
	<path class="st0" d="M94.8,31.9l-0.3-2.7c-0.6,1-1.3,1.8-2.2,2.4c-0.9,0.5-1.7,0.8-2.5,0.8c-1.1,0-2.2-0.5-3-1.4
		c-0.9-0.9-1.3-2.1-1.3-3.5c0-0.4,0-0.7,0-0.9c0-0.2,0-0.5,0.1-0.9s0.1-0.7,0.2-1s0.3-0.6,0.5-0.9c0.2-0.4,0.5-0.7,0.7-1
		c0.3-0.3,0.7-0.6,1.1-1s1-0.7,1.5-1.1c0.6-0.3,1.3-0.7,2-1.1c0.8-0.4,1.6-0.8,2.6-1.2v-0.2c0-1.3-0.1-2.3-0.2-3.2s-0.2-1.6-0.4-2.1
		c-0.2-0.5-0.4-0.9-0.6-1.1c-0.3-0.3-0.5-0.4-0.7-0.5s-0.5-0.1-0.8-0.1s-0.6,0-0.9,0.1s-0.5,0.3-0.8,0.5c-0.3,0.3-0.5,0.7-0.7,1.3
		s-0.3,1.3-0.4,2.2v0.1h-2.9c0.1-1.9,0.7-3.4,1.7-4.5s2.3-1.6,3.9-1.6c0.9,0,1.7,0.1,2.4,0.4c0.7,0.3,1.2,0.7,1.6,1.1
		c0.4,0.4,0.7,1,1,1.6c0.2,0.6,0.4,1.2,0.5,1.8s0.1,1.2,0.1,1.9v10.6c0,0.8,0,1.6,0.1,2.4s0.1,1.5,0.2,2l0.1,0.7h-2.6V31.9z
		 M94.3,27.4v-7.8c-0.9,0.6-1.6,1.1-2.1,1.5s-1.1,0.8-1.6,1.3c-0.6,0.5-1,1-1.3,1.4s-0.5,0.9-0.7,1.4s-0.3,1.1-0.3,1.7
		c0,1.1,0.2,1.8,0.7,2.3c0.4,0.5,1,0.8,1.6,0.8c0.7,0,1.4-0.3,2.1-0.8C93.3,28.9,93.8,28.2,94.3,27.4z"/>
	<path class="st0" d="M100,26.4l2.1-0.7c0.2,0.5,0.4,1.1,0.6,1.6c0.3,0.5,0.6,1,0.9,1.5c0.4,0.5,0.8,0.9,1.3,1.2
		c0.5,0.3,1,0.5,1.5,0.5c1,0,1.7-0.3,2.2-0.9s0.7-1.4,0.7-2.4c0-1.4-1.3-3.2-3.8-5.4l-1.6-1.4c-1.2-1.1-2.1-2-2.8-2.9
		c-0.6-0.8-0.9-1.8-0.9-2.8c0-1.7,0.5-2.9,1.5-3.9c1-0.9,2.3-1.4,4-1.4c0.8,0,1.5,0.2,2.2,0.5s1.2,0.7,1.6,1.3
		c0.4,0.5,0.8,1.1,1.1,1.8c0.3,0.6,0.5,1.3,0.7,2.1l-2.4,0.8c-0.1-0.7-0.3-1.3-0.5-2c-0.2-0.6-0.6-1.2-1.1-1.7s-1.1-0.7-1.7-0.7
		c-0.8,0-1.5,0.3-2,0.8c-0.5,0.6-0.7,1.3-0.7,2.2c0,0.7,0.2,1.4,0.7,2.1c0.5,0.7,1.2,1.4,2.1,2.1l1.7,1.5c0.6,0.5,1,0.9,1.3,1.2
		c0.3,0.3,0.7,0.7,1.1,1.2c0.5,0.5,0.8,1,1,1.4s0.4,0.9,0.6,1.5s0.3,1.2,0.3,1.8c0,1.6-0.5,2.9-1.6,3.9c-1,1-2.4,1.4-4.1,1.4
		c-1.6,0-3-0.6-4.1-1.7C101.2,29.6,100.4,28.1,100,26.4z"/>
	<path class="st0" d="M125.9,31.9l-5.3-31.7h2.6l4.3,27.1l4.1-27.1h3.6l3.7,27.1l4.3-27.1h2.6l-5.3,31.7h-3.2l-4-28l-4.3,28H125.9z"
		/>
	<path class="st0" d="M156.8,31.9l-0.3-2.7c-0.6,1-1.3,1.8-2.2,2.4c-0.9,0.5-1.7,0.8-2.5,0.8c-1.1,0-2.2-0.5-3-1.4s-1.3-2.1-1.3-3.5
		c0-0.4,0-0.7,0-0.9c0-0.2,0-0.5,0.1-0.9s0.1-0.7,0.2-1c0.1-0.3,0.3-0.6,0.5-0.9c0.2-0.4,0.5-0.7,0.7-1c0.3-0.3,0.7-0.6,1.1-1
		c0.4-0.4,1-0.7,1.5-1.1c0.6-0.3,1.3-0.7,2-1.1s1.6-0.8,2.6-1.2v-0.2c0-1.3-0.1-2.3-0.2-3.2c-0.1-0.9-0.2-1.6-0.4-2.1
		c-0.2-0.5-0.4-0.9-0.6-1.1c-0.3-0.3-0.5-0.4-0.7-0.5s-0.5-0.1-0.8-0.1s-0.6,0-0.9,0.1c-0.3,0.1-0.5,0.3-0.8,0.5
		c-0.3,0.3-0.5,0.7-0.7,1.3s-0.3,1.3-0.4,2.2v0.1h-2.9c0.1-1.9,0.7-3.4,1.7-4.5s2.3-1.6,3.9-1.6c0.9,0,1.7,0.1,2.4,0.4
		c0.7,0.3,1.2,0.7,1.6,1.1c0.4,0.4,0.7,1,1,1.6s0.4,1.2,0.5,1.8s0.1,1.2,0.1,1.9v10.6c0,0.8,0,1.6,0.1,2.4s0.1,1.5,0.2,2l0.1,0.7
		h-2.6V31.9z M156.3,27.4v-7.8c-0.9,0.6-1.6,1.1-2.1,1.5s-1.1,0.8-1.6,1.3c-0.6,0.5-1,1-1.3,1.4s-0.5,0.9-0.7,1.4s-0.3,1.1-0.3,1.7
		c0,1.1,0.2,1.8,0.7,2.3c0.4,0.5,1,0.8,1.6,0.8c0.7,0,1.4-0.3,2.1-0.8C155.3,28.9,155.9,28.2,156.3,27.4z"/>
	<polygon class="st0" points="13.6,0.2 13.6,0.2 0.9,0.2 0.9,2.6 19.7,2.6 19.7,31.9 22.5,31.9 22.5,2.6 28.7,2.6 28.7,2.5 
		28.7,0.2 28.7,0.2 	"/>
	<g>
		<path class="st0" d="M112.9,51.5V40.1h1v10.6h3.2v0.8C117.1,51.5,112.9,51.5,112.9,51.5z"/>
		<path class="st0" d="M118,51.5V40.1h1v11.4H118z"/>
		<path class="st0" d="M120.7,48.3v-4.8c0-2.4,1-3.5,3-3.5c0.3,0,0.6,0,0.9,0.1s0.5,0.2,0.7,0.3s0.3,0.3,0.5,0.5
			c0.1,0.2,0.2,0.4,0.3,0.6c0.1,0.2,0.1,0.4,0.2,0.7c0,0.3,0.1,0.5,0.1,0.8s0,0.5,0,0.9V44h-1v-0.1c0,0,0,0,0-0.1c0-0.3,0-0.6,0-0.7
			c0-0.2,0-0.4,0-0.7s-0.1-0.5-0.1-0.6c-0.1-0.1-0.2-0.3-0.3-0.5c-0.1-0.2-0.3-0.3-0.5-0.3c-0.2-0.1-0.4-0.1-0.7-0.1
			c-0.4,0-0.7,0.1-1,0.2c-0.3,0.1-0.5,0.3-0.6,0.5s-0.3,0.5-0.3,0.7c-0.1,0.3-0.1,0.5-0.1,0.9v5.7c0,0.3,0,0.6,0.1,0.8
			s0.1,0.5,0.3,0.7c0.1,0.2,0.3,0.4,0.6,0.5s0.6,0.2,1,0.2c0.3,0,0.6-0.1,0.9-0.2c0.2-0.1,0.4-0.3,0.6-0.5c0.1-0.2,0.2-0.4,0.3-0.7
			c0.1-0.2,0.1-0.5,0.1-0.8V47H124v-0.8h2.4v5.4H126l-0.3-1.1c-0.2,0.4-0.4,0.7-0.8,0.9s-0.8,0.4-1.3,0.4c-0.3,0-0.6,0-0.8-0.1
			c-0.3-0.1-0.5-0.1-0.7-0.2c-0.2-0.1-0.4-0.2-0.5-0.3s-0.3-0.3-0.4-0.4c-0.1-0.1-0.2-0.3-0.2-0.5c-0.1-0.2-0.1-0.3-0.2-0.5
			c0-0.1-0.1-0.3-0.1-0.5s0-0.3,0-0.5C120.7,48.6,120.7,48.5,120.7,48.3z"/>
		<path class="st0" d="M128.2,51.5V40.1h1v5.2h3.5v-5.2h1v11.4h-1V46h-3.5v5.5H128.2z"/>
		<path class="st0" d="M136.6,51.5V40.9h-2.2v-0.8h5.5v0.8h-2.2v10.6H136.6z"/>
		<path class="st0" d="M140.6,51.5V40.1h1v11.4H140.6z"/>
		<path class="st0" d="M143.5,51.5V40.1h0.8l3.6,9v-9h0.9v11.4H148l-3.6-8.8v8.8H143.5z"/>
		<path class="st0" d="M150.5,48.3v-4.8c0-2.4,1-3.5,3-3.5c0.3,0,0.6,0,0.9,0.1c0.3,0.1,0.5,0.2,0.7,0.3s0.3,0.3,0.5,0.5
			c0.1,0.2,0.2,0.4,0.3,0.6c0.1,0.2,0.1,0.4,0.2,0.7c0,0.3,0.1,0.5,0.1,0.8s0,0.5,0,0.9V44h-1v-0.1c0,0,0,0,0-0.1c0-0.3,0-0.6,0-0.7
			c0-0.2,0-0.4,0-0.7s-0.1-0.5-0.1-0.6c-0.1-0.1-0.2-0.3-0.3-0.5s-0.3-0.3-0.5-0.3c-0.2-0.1-0.4-0.1-0.7-0.1c-0.4,0-0.7,0.1-1,0.2
			c-0.3,0.1-0.5,0.3-0.6,0.5s-0.3,0.5-0.3,0.7c-0.1,0.3-0.1,0.5-0.1,0.9v5.7c0,0.3,0,0.6,0.1,0.8s0.1,0.5,0.3,0.7
			c0.1,0.2,0.3,0.4,0.6,0.5s0.6,0.2,1,0.2c0.3,0,0.6-0.1,0.9-0.2c0.2-0.1,0.4-0.3,0.6-0.5c0.1-0.2,0.2-0.4,0.3-0.7
			c0.1-0.2,0.1-0.5,0.1-0.8V47h-1.4v-0.8h2.4v5.4h-0.4l-0.3-1.1c-0.2,0.4-0.4,0.7-0.8,0.9c-0.4,0.2-0.8,0.4-1.3,0.4
			c-0.3,0-0.6,0-0.8-0.1c-0.3-0.1-0.5-0.1-0.7-0.2c-0.2-0.1-0.4-0.2-0.5-0.3s-0.3-0.3-0.4-0.4c-0.1-0.1-0.2-0.3-0.2-0.5
			c-0.1-0.2-0.1-0.3-0.2-0.5c0-0.1-0.1-0.3-0.1-0.5s0-0.3,0-0.5C150.5,48.6,150.5,48.5,150.5,48.3z"/>
		<path class="st0" d="M160.6,51.5V40.1h2.8c0.4,0,0.8,0.1,1.1,0.2c0.3,0.1,0.6,0.3,0.8,0.4c0.2,0.2,0.4,0.4,0.5,0.7
			s0.2,0.5,0.3,0.8s0.1,0.6,0.1,1c0,0.3,0,0.7-0.1,1c0,0.3-0.1,0.6-0.3,0.9c-0.1,0.3-0.3,0.5-0.5,0.7s-0.5,0.4-0.8,0.5
			s-0.7,0.2-1.1,0.2h-1.8v5.1h-1V51.5z M161.6,45.6h1.9c0.6,0,1-0.2,1.2-0.6c0.2-0.4,0.4-1,0.4-1.9c0-0.8-0.1-1.4-0.4-1.7
			c-0.3-0.4-0.7-0.6-1.2-0.6h-1.9V45.6z"/>
		<path class="st0" d="M167.3,51.5V40.1h3c0.4,0,0.7,0.1,1,0.2c0.3,0.1,0.5,0.2,0.7,0.4s0.3,0.4,0.4,0.6c0.1,0.3,0.2,0.5,0.2,0.8
			s0.1,0.6,0.1,0.9c0,1.5-0.5,2.4-1.6,2.8l1.8,5.7h-1.1l-1.7-5.6h-1.9v5.6H167.3z M168.3,45.1h2c0.3,0,0.5-0.1,0.7-0.2
			c0.2-0.1,0.3-0.3,0.4-0.5c0.1-0.2,0.2-0.4,0.2-0.7c0-0.2,0.1-0.5,0.1-0.8c0-0.2,0-0.5,0-0.7s-0.1-0.4-0.1-0.6
			c-0.1-0.2-0.1-0.3-0.3-0.5c-0.1-0.1-0.2-0.2-0.4-0.3s-0.4-0.1-0.6-0.1h-2L168.3,45.1L168.3,45.1z"/>
		<path class="st0" d="M174.1,48.2v-4.8c0-0.4,0-0.8,0.1-1.1s0.2-0.7,0.3-1s0.3-0.5,0.5-0.8c0.2-0.2,0.5-0.4,0.8-0.5
			s0.7-0.2,1.2-0.2c0.4,0,0.8,0.1,1.2,0.2c0.3,0.1,0.6,0.3,0.8,0.5s0.4,0.5,0.5,0.8s0.2,0.6,0.3,1c0.1,0.3,0.1,0.7,0.1,1.1v4.8
			c0,2.3-1,3.5-2.9,3.5C175.1,51.7,174.1,50.5,174.1,48.2z M178.9,48.4v-5.2c0-1.6-0.6-2.4-1.9-2.4c-1.3,0-1.9,0.8-1.9,2.4v5.2
			c0,1.6,0.6,2.5,1.9,2.5C178.3,50.9,178.9,50,178.9,48.4z"/>
	</g>
	<rect x="19.7" y="40.5" class="st1" width="89" height="2.3"/>
</g>
</svg>
